<svg id="Layer_1" data-name="Layer 1" xmlns="http://www.w3.org/2000/svg" viewBox="0 0 327.85 80.21">
  <defs>
    <style>
      .cls-1 {
        font-size: 72px;
        font-family: Rubik-ExtraBold, Rubik;
        font-weight: 800;
      }
    </style>
  </defs>
  <title>logo</title>
  <text class="cls-1" transform="translate(84.14 61.2)">UChan</text>
  <path d="M85.3,34.28V16.4a2.59,2.59,0,0,0-1.8-2.47l-39-12.57a2.57,2.57,0,0,0-1.6,0l-39,12.57a2.59,2.59,0,0,0,0,4.94l19.52,6.3V35c.08,2.53,2.47,4.93,6.75,6.76a35,35,0,0,0,13.52,2.6,35,35,0,0,0,13.52-2.6C61.58,39.94,64,37.49,64,34.92V25.17L80.1,20V34.28A6.74,6.74,0,0,0,76,40.49v8.8a2.59,2.59,0,0,0,2.6,2.6h8.26a2.59,2.59,0,0,0,2.6-2.6v-8.8A6.74,6.74,0,0,0,85.3,34.28ZM54.37,37.35a31.64,31.64,0,0,1-21.32,0c-2.74-1-4.1-2.17-4.41-2.65V26.84l14.27,4.6a2.53,2.53,0,0,0,1.6,0l14.27-4.6V34.7C58.46,35.18,57.11,36.31,54.37,37.35ZM43.71,26.24,13.19,16.4,43.71,6.56,74.23,16.4ZM84.23,46.69H81.17v-6.2a1.53,1.53,0,1,1,3.06,0Z" transform="translate(-2.12 8.99)"/>
</svg>
