<svg xmlns="http://www.w3.org/2000/svg" xmlns:xlink="http://www.w3.org/1999/xlink" viewBox="0 0 412.69 423.29">
  <defs>
    <style>
      .cls-1 {
        fill: url(#linear-gradient);
      }

      .cls-2 {
        fill: url(#linear-gradient-2);
      }
    </style>
    <linearGradient id="linear-gradient" x1="71.21" y1="328.27" x2="354.78" y2="73.81" gradientTransform="translate(-2.28 0.13)" gradientUnits="userSpaceOnUse">
      <stop offset="0"/>
      <stop offset="1" stop-color="#333"/>
    </linearGradient>
    <linearGradient id="linear-gradient-2" x1="94.22" y1="293.99" x2="324.5" y2="63.71" gradientTransform="translate(-23.75 24.4) rotate(-6.35)" gradientUnits="userSpaceOnUse">
      <stop offset="0" stop-color="#e6e6e6"/>
      <stop offset="1" stop-color="#fff"/>
    </linearGradient>
  </defs>
  <title>Asset 2</title>
  <g id="Layer_2" data-name="Layer 2">
    <g id="Layer_1-2" data-name="Layer 1">
      <rect x="24.2" y="165.68" width="381" height="242" rx="45.27" transform="translate(-30.4 25.52) rotate(-6.35)"/>
      <rect class="cls-1" x="15.18" y="15.18" width="381" height="381" rx="45.27" transform="translate(-21.5 24.02) rotate(-6.35)"/>
      <path class="cls-2" d="M223.05,344.84q-36.5,4.07-65.42-4.24t-47.11-30.7q-18.19-22.39-22.29-59.28L70.36,90.15a9.63,9.63,0,0,1,2.33-7.61,10.16,10.16,0,0,1,6.74-3.73l63.95-7.12a10.12,10.12,0,0,1,11.34,9.07l17.73,159.29q2.24,20,13.18,29.12T215,276.22q18.44-2.06,26.92-13.32t6.25-31.28L230.44,72.33a9.59,9.59,0,0,1,2.33-7.61,10.61,10.61,0,0,1,7.13-3.78l63.56-7.07a10.09,10.09,0,0,1,11.33,9.06L332.66,223.4q4.11,36.89-8.51,62.72t-38.81,40.27Q259.14,340.82,223.05,344.84Z"/>
    </g>
  </g>
</svg>
